<?xml version="1.0" encoding="utf-8"?>
<svg xmlns="http://www.w3.org/2000/svg" width="1200" height="420" viewBox="0 0 1200 420">
<rect width="1200" height="420" fill="#ffffff"/>
<circle cx="600.00" cy="210.00" r="6" fill="#e7e7e7">
  <title>2024-09-01 - inactive</title>
</circle>
<circle cx="607.07" cy="213.42" r="6" fill="#e7e7e7">
  <title>2024-09-02 - inactive</title>
</circle>
<circle cx="606.90" cy="218.70" r="6" fill="#e7e7e7">
  <title>2024-09-03 - inactive</title>
</circle>
<circle cx="602.98" cy="223.27" r="6" fill="#e7e7e7">
  <title>2024-09-04 - inactive</title>
</circle>
<circle cx="596.43" cy="225.29" r="6" fill="#e7e7e7">
  <title>2024-09-05 - inactive</title>
</circle>
<circle cx="588.97" cy="223.66" r="6" fill="#e7e7e7">
  <title>2024-09-06 - inactive</title>
</circle>
<circle cx="582.61" cy="218.22" r="6" fill="#e7e7e7">
  <title>2024-09-07 - inactive</title>
</circle>
<circle cx="579.23" cy="209.83" r="6" fill="#e7e7e7">
  <title>2024-09-08 - inactive</title>
</circle>
<circle cx="580.09" cy="200.17" r="6" fill="#e7e7e7">
  <title>2024-09-09 - inactive</title>
</circle>
<circle cx="585.51" cy="191.43" r="6" fill="#e7e7e7">
  <title>2024-09-10 - inactive</title>
</circle>
<circle cx="594.77" cy="185.73" r="6" fill="#e7e7e7">
  <title>2024-09-11 - inactive</title>
</circle>
<circle cx="606.13" cy="184.69" r="6" fill="#e7e7e7">
  <title>2024-09-12 - inactive</title>
</circle>
<circle cx="617.26" cy="188.98" r="6" fill="#e7e7e7">
  <title>2024-09-13 - inactive</title>
</circle>
<circle cx="625.69" cy="198.12" r="6" fill="#e7e7e7">
  <title>2024-09-14 - inactive</title>
</circle>
<circle cx="629.37" cy="210.49" r="6" fill="#e7e7e7">
  <title>2024-09-15 - inactive</title>
</circle>
<circle cx="627.15" cy="223.69" r="6" fill="#e7e7e7">
  <title>2024-09-16 - inactive</title>
</circle>
<circle cx="619.11" cy="234.93" r="6" fill="#e7e7e7">
  <title>2024-09-17 - inactive</title>
</circle>
<circle cx="606.56" cy="241.70" r="6" fill="#e7e7e7">
  <title>2024-09-18 - inactive</title>
</circle>
<circle cx="591.89" cy="242.31" r="6" fill="#e7e7e7">
  <title>2024-09-19 - inactive</title>
</circle>
<circle cx="578.06" cy="236.26" r="6" fill="#e7e7e7">
  <title>2024-09-20 - inactive</title>
</circle>
<circle cx="568.01" cy="224.47" r="6" fill="#e7e7e7">
  <title>2024-09-21 - inactive</title>
</circle>
<circle cx="564.03" cy="209.09" r="6" fill="#e7e7e7">
  <title>2024-09-22 - inactive</title>
</circle>
<circle cx="567.25" cy="193.15" r="6" fill="#e7e7e7">
  <title>2024-09-23 - inactive</title>
</circle>
<circle cx="577.35" cy="179.92" r="6" fill="#e7e7e7">
  <title>2024-09-24 - inactive</title>
</circle>
<circle cx="592.53" cy="172.27" r="6" fill="#e7e7e7">
  <title>2024-09-25 - inactive</title>
</circle>
<circle cx="609.88" cy="172.01" r="6" fill="#e7e7e7">
  <title>2024-09-26 - inactive</title>
</circle>
<circle cx="625.93" cy="179.49" r="6" fill="#e7e7e7">
  <title>2024-09-27 - inactive</title>
</circle>
<circle cx="637.31" cy="193.50" r="6" fill="#e7e7e7">
  <title>2024-09-28 - inactive</title>
</circle>
<circle cx="641.52" cy="211.40" r="6" fill="#e7e7e7">
  <title>2024-09-29 - inactive</title>
</circle>
<circle cx="637.43" cy="229.66" r="6" fill="#e7e7e7">
  <title>2024-09-30 - inactive</title>
</circle>
<circle cx="625.58" cy="244.57" r="6" fill="#e7e7e7">
  <title>2024-10-01 - inactive</title>
</circle>
<circle cx="608.13" cy="252.95" r="6" fill="#e7e7e7">
  <title>2024-10-02 - inactive</title>
</circle>
<circle cx="588.46" cy="252.89" r="6" fill="#e7e7e7">
  <title>2024-10-03 - inactive</title>
</circle>
<circle cx="570.50" cy="244.12" r="6" fill="#e7e7e7">
  <title>2024-10-04 - inactive</title>
</circle>
<circle cx="557.98" cy="228.16" r="6" fill="#e7e7e7">
  <title>2024-10-05 - inactive</title>
</circle>
<circle cx="553.59" cy="208.05" r="6" fill="#e7e7e7">
  <title>2024-10-06 - inactive</title>
</circle>
<circle cx="558.48" cy="187.75" r="6" fill="#e7e7e7">
  <title>2024-10-07 - inactive</title>
</circle>
<circle cx="571.91" cy="171.38" r="6" fill="#e7e7e7">
  <title>2024-10-08 - inactive</title>
</circle>
<circle cx="591.39" cy="162.37" r="6" fill="#e7e7e7">
  <title>2024-10-09 - inactive</title>
</circle>
<circle cx="613.14" cy="162.76" r="6" fill="#e7e7e7">
  <title>2024-10-10 - inactive</title>
</circle>
<circle cx="632.79" cy="172.71" r="6" fill="#e7e7e7">
  <title>2024-10-11 - inactive</title>
</circle>
<circle cx="646.31" cy="190.44" r="6" fill="#e7e7e7">
  <title>2024-10-12 - inactive</title>
</circle>
<circle cx="650.82" cy="212.57" r="6" fill="#e7e7e7">
  <title>2024-10-13 - inactive</title>
</circle>
<circle cx="645.17" cy="234.70" r="6" fill="#e7e7e7">
  <title>2024-10-14 - inactive</title>
</circle>
<circle cx="630.28" cy="252.38" r="6" fill="#e7e7e7">
  <title>2024-10-15 - inactive</title>
</circle>
<circle cx="608.93" cy="261.91" r="6" fill="#e7e7e7">
  <title>2024-10-16 - inactive</title>
</circle>
<circle cx="585.30" cy="261.18" r="6" fill="#e7e7e7">
  <title>2024-10-17 - inactive</title>
</circle>
<circle cx="564.12" cy="250.12" r="6" fill="#e7e7e7">
  <title>2024-10-18 - inactive</title>
</circle>
<circle cx="549.71" cy="230.74" r="6" fill="#e7e7e7">
  <title>2024-10-19 - inactive</title>
</circle>
<circle cx="545.14" cy="206.77" r="6" fill="#e7e7e7">
  <title>2024-10-20 - inactive</title>
</circle>
<circle cx="551.52" cy="182.95" r="6" fill="#e7e7e7">
  <title>2024-10-21 - inactive</title>
</circle>
<circle cx="567.79" cy="164.10" r="6" fill="#e7e7e7">
  <title>2024-10-22 - inactive</title>
</circle>
<circle cx="590.87" cy="154.12" r="6" fill="#e7e7e7">
  <title>2024-10-23 - inactive</title>
</circle>
<circle cx="616.24" cy="155.20" r="6" fill="#e7e7e7">
  <title>2024-10-24 - inactive</title>
</circle>
<circle cx="638.82" cy="167.32" r="6" fill="#e7e7e7">
  <title>2024-10-25 - inactive</title>
</circle>
<circle cx="654.01" cy="188.25" r="6" fill="#e7e7e7">
  <title>2024-10-26 - inactive</title>
</circle>
<circle cx="658.62" cy="213.95" r="6" fill="#e7e7e7">
  <title>2024-10-27 - inactive</title>
</circle>
<circle cx="651.52" cy="239.31" r="6" fill="#e7e7e7">
  <title>2024-10-28 - inactive</title>
</circle>
<circle cx="633.94" cy="259.23" r="6" fill="#e7e7e7">
  <title>2024-10-29 - inactive</title>
</circle>
<circle cx="609.22" cy="269.60" r="6" fill="#e7e7e7">
  <title>2024-10-30 - inactive</title>
</circle>
<circle cx="582.23" cy="268.16" r="6" fill="#e7e7e7">
  <title>2024-10-31 - inactive</title>
</circle>
<circle cx="558.36" cy="255.02" r="6" fill="#e7e7e7">
  <title>2024-11-01 - inactive</title>
</circle>
<circle cx="542.46" cy="232.61" r="6" fill="#e7e7e7">
  <title>2024-11-02 - inactive</title>
</circle>
<circle cx="537.86" cy="205.29" r="6" fill="#e7e7e7">
  <title>2024-11-03 - inactive</title>
</circle>
<circle cx="545.67" cy="178.48" r="6" fill="#e7e7e7">
  <title>2024-11-04 - inactive</title>
</circle>
<circle cx="564.51" cy="157.58" r="6" fill="#e7e7e7">
  <title>2024-11-05 - inactive</title>
</circle>
<circle cx="590.78" cy="146.89" r="6" fill="#e7e7e7">
  <title>2024-11-06 - inactive</title>
</circle>
<circle cx="619.29" cy="148.70" r="6" fill="#e7e7e7">
  <title>2024-11-07 - inactive</title>
</circle>
<circle cx="644.36" cy="162.84" r="6" fill="#e7e7e7">
  <title>2024-11-08 - inactive</title>
</circle>
<circle cx="660.90" cy="186.66" r="6" fill="#e7e7e7">
  <title>2024-11-09 - inactive</title>
</circle>
<circle cx="665.46" cy="215.52" r="6" fill="#e7e7e7">
  <title>2024-11-10 - inactive</title>
</circle>
<circle cx="656.94" cy="243.68" r="6" fill="#e7e7e7">
  <title>2024-11-11 - inactive</title>
</circle>
<circle cx="636.88" cy="265.48" r="6" fill="#e7e7e7">
  <title>2024-11-12 - inactive</title>
</circle>
<circle cx="609.14" cy="276.46" r="6" fill="#e7e7e7">
  <title>2024-11-13 - inactive</title>
</circle>
<circle cx="579.19" cy="274.25" r="6" fill="#e7e7e7">
  <title>2024-11-14 - inactive</title>
</circle>
<circle cx="553.00" cy="259.13" r="6" fill="#e7e7e7">
  <title>2024-11-15 - inactive</title>
</circle>
<circle cx="535.88" cy="233.95" r="6" fill="#e7e7e7">
  <title>2024-11-16 - inactive</title>
</circle>
<circle cx="531.40" cy="203.64" r="6" fill="#e7e7e7">
  <title>2024-11-17 - inactive</title>
</circle>
<circle cx="540.61" cy="174.20" r="6" fill="#e7e7e7">
  <title>2024-11-18 - inactive</title>
</circle>
<circle cx="561.85" cy="151.56" r="6" fill="#e7e7e7">
  <title>2024-11-19 - inactive</title>
</circle>
<circle cx="591.01" cy="140.35" r="6" fill="#e7e7e7">
  <title>2024-11-20 - inactive</title>
</circle>
<circle cx="622.34" cy="142.96" r="6" fill="#e7e7e7">
  <title>2024-11-21 - inactive</title>
</circle>
<circle cx="649.58" cy="159.04" r="6" fill="#e7e7e7">
  <title>2024-11-22 - inactive</title>
</circle>
<circle cx="667.21" cy="185.53" r="6" fill="#e7e7e7">
  <title>2024-11-23 - inactive</title>
</circle>
<circle cx="671.59" cy="217.25" r="6" fill="#e7e7e7">
  <title>2024-11-24 - inactive</title>
</circle>
<circle cx="661.68" cy="247.89" r="6" fill="#e7e7e7">
  <title>2024-11-25 - inactive</title>
</circle>
<circle cx="639.29" cy="271.30" r="6" fill="#e7e7e7">
  <title>2024-11-26 - inactive</title>
</circle>
<circle cx="608.76" cy="282.71" r="6" fill="#e7e7e7">
  <title>2024-11-27 - inactive</title>
</circle>
<circle cx="576.13" cy="279.68" r="6" fill="#e7e7e7">
  <title>2024-11-28 - inactive</title>
</circle>
<circle cx="547.90" cy="262.65" r="6" fill="#e7e7e7">
  <title>2024-11-29 - inactive</title>
</circle>
<circle cx="529.80" cy="234.89" r="6" fill="#e7e7e7">
  <title>2024-11-30 - inactive</title>
</circle>
<circle cx="525.55" cy="201.83" r="6" fill="#e7e7e7">
  <title>2024-12-01 - inactive</title>
</circle>
<circle cx="536.17" cy="170.04" r="6" fill="#e7e7e7">
  <title>2024-12-02 - inactive</title>
</circle>
<circle cx="559.68" cy="145.91" r="6" fill="#e7e7e7">
  <title>2024-12-03 - inactive</title>
</circle>
<circle cx="591.53" cy="134.35" r="6" fill="#e7e7e7">
  <title>2024-12-04 - inactive</title>
</circle>
<circle cx="625.41" cy="137.82" r="6" fill="#e7e7e7">
  <title>2024-12-05 - inactive</title>
</circle>
<circle cx="654.56" cy="155.77" r="6" fill="#e7e7e7">
  <title>2024-12-06 - inactive</title>
</circle>
<circle cx="673.10" cy="184.77" r="6" fill="#e7e7e7">
  <title>2024-12-07 - inactive</title>
</circle>
<circle cx="677.19" cy="219.13" r="6" fill="#e7e7e7">
  <title>2024-12-08 - inactive</title>
</circle>
<circle cx="665.87" cy="252.00" r="6" fill="#e7e7e7">
  <title>2024-12-09 - inactive</title>
</circle>
<circle cx="641.24" cy="276.81" r="6" fill="#e7e7e7">
  <title>2024-12-10 - inactive</title>
</circle>
<circle cx="608.12" cy="288.49" r="6" fill="#e7e7e7">
  <title>2024-12-11 - inactive</title>
</circle>
<circle cx="573.04" cy="284.57" r="6" fill="#e7e7e7">
  <title>2024-12-12 - inactive</title>
</circle>
<circle cx="543.01" cy="265.69" r="6" fill="#e7e7e7">
  <title>2024-12-13 - inactive</title>
</circle>
<circle cx="524.09" cy="235.48" r="6" fill="#e7e7e7">
  <title>2024-12-14 - inactive</title>
</circle>
<circle cx="520.19" cy="199.88" r="6" fill="#e7e7e7">
  <title>2024-12-15 - inactive</title>
</circle>
<circle cx="532.21" cy="165.96" r="6" fill="#e7e7e7">
  <title>2024-12-16 - inactive</title>
</circle>
<circle cx="557.92" cy="140.54" r="6" fill="#e7e7e7">
  <title>2024-12-17 - inactive</title>
</circle>
<circle cx="592.29" cy="128.77" r="6" fill="#e7e7e7">
  <title>2024-12-18 - inactive</title>
</circle>
<circle cx="628.52" cy="133.15" r="6" fill="#e7e7e7">
  <title>2024-12-19 - inactive</title>
</circle>
<circle cx="659.38" cy="152.94" r="6" fill="#e7e7e7">
  <title>2024-12-20 - inactive</title>
</circle>
<circle cx="678.64" cy="184.33" r="6" fill="#e7e7e7">
  <title>2024-12-21 - inactive</title>
</circle>
<circle cx="682.34" cy="221.14" r="6" fill="#e7e7e7">
  <title>2024-12-22 - inactive</title>
</circle>
<circle cx="669.60" cy="256.05" r="6" fill="#e7e7e7">
  <title>2024-12-23 - inactive</title>
</circle>
<circle cx="642.83" cy="282.06" r="6" fill="#e7e7e7">
  <title>2024-12-24 - inactive</title>
</circle>
<circle cx="607.26" cy="293.88" r="6" fill="#e7e7e7">
  <title>2024-12-25 - inactive</title>
</circle>
<circle cx="569.92" cy="289.03" r="6" fill="#e7e7e7">
  <title>2024-12-26 - inactive</title>
</circle>
<circle cx="538.27" cy="268.33" r="6" fill="#e7e7e7">
  <title>2024-12-27 - inactive</title>
</circle>
<circle cx="518.70" cy="235.78" r="6" fill="#e7e7e7">
  <title>2024-12-28 - inactive</title>
</circle>
<circle cx="515.23" cy="197.80" r="6" fill="#e7e7e7">
  <title>2024-12-29 - inactive</title>
</circle>
<circle cx="528.67" cy="161.94" r="6" fill="#e7e7e7">
  <title>2024-12-30 - inactive</title>
</circle>
<circle cx="556.50" cy="135.39" r="6" fill="#e7e7e7">
  <title>2024-12-31 - inactive</title>
</circle>
<circle cx="593.25" cy="123.54" r="6" fill="#e7e7e7">
  <title>2025-01-01 - inactive</title>
</circle>
<circle cx="631.66" cy="128.88" r="6" fill="#e7e7e7">
  <title>2025-01-02 - inactive</title>
</circle>
<circle cx="664.05" cy="150.49" r="6" fill="#e7e7e7">
  <title>2025-01-03 - inactive</title>
</circle>
<circle cx="683.89" cy="184.17" r="6" fill="#e7e7e7">
  <title>2025-01-04 - inactive</title>
</circle>
<circle cx="687.12" cy="223.29" r="6" fill="#e7e7e7">
  <title>2025-01-05 - inactive</title>
</circle>
<circle cx="672.96" cy="260.06" r="6" fill="#e7e7e7">
  <title>2025-01-06 - inactive</title>
</circle>
<circle cx="644.10" cy="287.11" r="6" fill="#e7e7e7">
  <title>2025-01-07 - inactive</title>
</circle>
<circle cx="606.19" cy="298.96" r="6" fill="#e7e7e7">
  <title>2025-01-08 - inactive</title>
</circle>
<circle cx="566.75" cy="293.12" r="6" fill="#e7e7e7">
  <title>2025-01-09 - inactive</title>
</circle>
<circle cx="533.65" cy="270.61" r="6" fill="#e7e7e7">
  <title>2025-01-10 - inactive</title>
</circle>
<circle cx="513.57" cy="235.82" r="6" fill="#e7e7e7">
  <title>2025-01-11 - inactive</title>
</circle>
<circle cx="510.61" cy="195.60" r="6" fill="#e7e7e7">
  <title>2025-01-12 - inactive</title>
</circle>
<circle cx="525.49" cy="157.95" r="6" fill="#e7e7e7">
  <title>2025-01-13 - inactive</title>
</circle>
<circle cx="555.38" cy="130.43" r="6" fill="#e7e7e7">
  <title>2025-01-14 - inactive</title>
</circle>
<circle cx="594.41" cy="118.61" r="6" fill="#e7e7e7">
  <title>2025-01-15 - inactive</title>
</circle>
<circle cx="634.85" cy="124.97" r="6" fill="#e7e7e7">
  <title>2025-01-16 - inactive</title>
</circle>
<circle cx="668.62" cy="148.37" r="6" fill="#e7e7e7">
  <title>2025-01-17 - inactive</title>
</circle>
<circle cx="688.91" cy="184.25" r="6" fill="#e7e7e7">
  <title>2025-01-18 - inactive</title>
</circle>
<circle cx="691.59" cy="225.55" r="6" fill="#e7e7e7">
  <title>2025-01-19 - inactive</title>
</circle>
<circle cx="675.98" cy="264.03" r="6" fill="#e7e7e7">
  <title>2025-01-20 - inactive</title>
</circle>
<circle cx="645.07" cy="291.99" r="6" fill="#e7e7e7">
  <title>2025-01-21 - inactive</title>
</circle>
<circle cx="604.94" cy="303.76" r="6" fill="#e7e7e7">
  <title>2025-01-22 - inactive</title>
</circle>
<circle cx="563.54" cy="296.88" r="6" fill="#e7e7e7">
  <title>2025-01-23 - inactive</title>
</circle>
<circle cx="529.14" cy="272.58" r="6" fill="#e7e7e7">
  <title>2025-01-24 - inactive</title>
</circle>
<circle cx="508.66" cy="235.62" r="6" fill="#e7e7e7">
  <title>2025-01-25 - inactive</title>
</circle>
<circle cx="506.29" cy="193.28" r="6" fill="#e7e7e7">
  <title>2025-01-26 - inactive</title>
</circle>
<circle cx="522.63" cy="153.99" r="6" fill="#e7e7e7">
  <title>2025-01-27 - inactive</title>
</circle>
<circle cx="554.54" cy="125.63" r="6" fill="#e7e7e7">
  <title>2025-01-28 - inactive</title>
</circle>
<circle cx="595.75" cy="113.93" r="6" fill="#e7e7e7">
  <title>2025-01-29 - inactive</title>
</circle>
<circle cx="638.08" cy="121.35" r="6" fill="#e7e7e7">
  <title>2025-01-30 - inactive</title>
</circle>
<circle cx="673.09" cy="146.53" r="6" fill="#e7e7e7">
  <title>2025-01-31 - inactive</title>
</circle>
<circle cx="693.72" cy="184.56" r="6" fill="#e7e7e7">
  <title>2025-02-01 - inactive</title>
</circle>
<circle cx="695.77" cy="227.92" r="6" fill="#e7e7e7">
  <title>2025-02-02 - inactive</title>
</circle>
<circle cx="678.70" cy="267.98" r="6" fill="#e7e7e7">
  <title>2025-02-03 - inactive</title>
</circle>
<circle cx="645.79" cy="296.72" r="6" fill="#e7e7e7">
  <title>2025-02-04 - inactive</title>
</circle>
<circle cx="603.52" cy="308.31" r="6" fill="#e7e7e7">
  <title>2025-02-05 - inactive</title>
</circle>
<circle cx="560.28" cy="300.35" r="6" fill="#e7e7e7">
  <title>2025-02-06 - inactive</title>
</circle>
<circle cx="524.70" cy="274.28" r="6" fill="#e7e7e7">
  <title>2025-02-07 - inactive</title>
</circle>
<circle cx="503.94" cy="235.21" r="6" fill="#e7e7e7">
  <title>2025-02-08 - inactive</title>
</circle>
<circle cx="502.23" cy="190.86" r="6" fill="#e7e7e7">
  <title>2025-02-09 - inactive</title>
</circle>
<circle cx="520.05" cy="150.05" r="6" fill="#e7e7e7">
  <title>2025-02-10 - inactive</title>
</circle>
<circle cx="553.94" cy="120.97" r="6" fill="#e7e7e7">
  <title>2025-02-11 - inactive</title>
</circle>
<circle cx="597.24" cy="109.49" r="6" fill="#e7e7e7">
  <title>2025-02-12 - inactive</title>
</circle>
<circle cx="641.36" cy="118.02" r="6" fill="#e7e7e7">
  <title>2025-02-13 - inactive</title>
</circle>
<circle cx="677.49" cy="144.97" r="6" fill="#e7e7e7">
  <title>2025-02-14 - inactive</title>
</circle>
<circle cx="698.35" cy="185.07" r="6" fill="#e7e7e7">
  <title>2025-02-15 - inactive</title>
</circle>
<circle cx="699.70" cy="230.39" r="6" fill="#e7e7e7">
  <title>2025-02-16 - inactive</title>
</circle>
<circle cx="681.14" cy="271.91" r="6" fill="#e7e7e7">
  <title>2025-02-17 - inactive</title>
</circle>
<circle cx="646.27" cy="301.31" r="6" fill="#e7e7e7">
  <title>2025-02-18 - inactive</title>
</circle>
<circle cx="601.95" cy="312.65" r="6" fill="#e7e7e7">
  <title>2025-02-19 - inactive</title>
</circle>
<circle cx="556.98" cy="303.55" r="6" fill="#e7e7e7">
  <title>2025-02-20 - inactive</title>
</circle>
<circle cx="520.34" cy="275.72" r="6" fill="#e7e7e7">
  <title>2025-02-21 - inactive</title>
</circle>
<circle cx="499.40" cy="234.60" r="6" fill="#e7e7e7">
  <title>2025-02-22 - inactive</title>
</circle>
<circle cx="498.42" cy="188.33" r="6" fill="#e7e7e7">
  <title>2025-02-23 - inactive</title>
</circle>
<circle cx="517.73" cy="146.12" r="6" fill="#e7e7e7">
  <title>2025-02-24 - inactive</title>
</circle>
<circle cx="553.57" cy="116.43" r="6" fill="#e7e7e7">
  <title>2025-02-25 - inactive</title>
</circle>
<circle cx="598.89" cy="105.26" r="6" fill="#e7e7e7">
  <title>2025-02-26 - inactive</title>
</circle>
<circle cx="644.68" cy="114.93" r="6" fill="#e7e7e7">
  <title>2025-02-27 - inactive</title>
</circle>
<circle cx="681.81" cy="143.65" r="6" fill="#e7e7e7">
  <title>2025-02-28 - inactive</title>
</circle>
<circle cx="702.81" cy="185.77" r="6" fill="#e7e7e7">
  <title>2025-03-01 - inactive</title>
</circle>
<circle cx="703.40" cy="232.97" r="6" fill="#e7e7e7">
  <title>2025-03-02 - inactive</title>
</circle>
<circle cx="683.34" cy="275.84" r="6" fill="#e7e7e7">
  <title>2025-03-03 - inactive</title>
</circle>
<circle cx="646.54" cy="305.80" r="6" fill="#e7e7e7">
  <title>2025-03-04 - inactive</title>
</circle>
<circle cx="600.24" cy="316.79" r="6" fill="#e7e7e7">
  <title>2025-03-05 - inactive</title>
</circle>
<circle cx="553.64" cy="306.52" r="6" fill="#e7e7e7">
  <title>2025-03-06 - inactive</title>
</circle>
<circle cx="516.04" cy="276.92" r="6" fill="#e7e7e7">
  <title>2025-03-07 - inactive</title>
</circle>
<circle cx="495.01" cy="233.81" r="6" fill="#e7e7e7">
  <title>2025-03-08 - inactive</title>
</circle>
<circle cx="494.83" cy="185.71" r="6" fill="#e7e7e7">
  <title>2025-03-09 - inactive</title>
</circle>
<circle cx="515.64" cy="142.20" r="6" fill="#e7e7e7">
  <title>2025-03-10 - inactive</title>
</circle>
<circle cx="553.41" cy="112.00" r="6" fill="#e7e7e7">
  <title>2025-03-11 - inactive</title>
</circle>
<circle cx="600.67" cy="101.21" r="6" fill="#e7e7e7">
  <title>2025-03-12 - inactive</title>
</circle>
<circle cx="648.05" cy="112.08" r="6" fill="#e7e7e7">
  <title>2025-03-13 - inactive</title>
</circle>
<circle cx="686.08" cy="142.56" r="6" fill="#e7e7e7">
  <title>2025-03-14 - inactive</title>
</circle>
<circle cx="707.12" cy="186.65" r="6" fill="#e7e7e7">
  <title>2025-03-15 - inactive</title>
</circle>
<circle cx="706.89" cy="235.64" r="6" fill="#e7e7e7">
  <title>2025-03-16 - inactive</title>
</circle>
<circle cx="685.31" cy="279.75" r="6" fill="#e7e7e7">
  <title>2025-03-17 - inactive</title>
</circle>
<circle cx="646.60" cy="310.17" r="6" fill="#e7e7e7">
  <title>2025-03-18 - inactive</title>
</circle>
<circle cx="598.38" cy="320.75" r="6" fill="#e7e7e7">
  <title>2025-03-19 - inactive</title>
</circle>
<circle cx="550.25" cy="309.26" r="6" fill="#e7e7e7">
  <title>2025-03-20 - inactive</title>
</circle>
<circle cx="511.80" cy="277.91" r="6" fill="#e7e7e7">
  <title>2025-03-21 - inactive</title>
</circle>
<circle cx="490.77" cy="232.85" r="6" fill="#e7e7e7">
  <title>2025-03-22 - inactive</title>
</circle>
<circle cx="491.44" cy="183.00" r="6" fill="#e7e7e7">
  <title>2025-03-23 - inactive</title>
</circle>
<circle cx="513.79" cy="138.29" r="6" fill="#e7e7e7">
  <title>2025-03-24 - inactive</title>
</circle>
<circle cx="553.45" cy="107.68" r="6" fill="#e7e7e7">
  <title>2025-03-25 - inactive</title>
</circle>
<circle cx="602.59" cy="97.34" r="6" fill="#e7e7e7">
  <title>2025-03-26 - inactive</title>
</circle>
<circle cx="651.46" cy="109.44" r="6" fill="#e7e7e7">
  <title>2025-03-27 - inactive</title>
</circle>
<circle cx="690.30" cy="141.67" r="6" fill="#e7e7e7">
  <title>2025-03-28 - inactive</title>
</circle>
<circle cx="711.29" cy="187.70" r="6" fill="#e7e7e7">
  <title>2025-03-29 - inactive</title>
</circle>
<circle cx="710.18" cy="238.39" r="6" fill="#e7e7e7">
  <title>2025-03-30 - inactive</title>
</circle>
<circle cx="687.07" cy="283.66" r="6" fill="#e7e7e7">
  <title>2025-03-31 - inactive</title>
</circle>
<circle cx="646.47" cy="314.45" r="6" fill="#e7e7e7">
  <title>2025-04-01 - inactive</title>
</circle>
<circle cx="596.40" cy="324.53" r="6" fill="#e7e7e7">
  <title>2025-04-02 - inactive</title>
</circle>
<circle cx="546.82" cy="311.80" r="6" fill="#e7e7e7">
  <title>2025-04-03 - inactive</title>
</circle>
<circle cx="507.62" cy="278.69" r="6" fill="#e7e7e7">
  <title>2025-04-04 - inactive</title>
</circle>
<circle cx="486.67" cy="231.72" r="6" fill="#e7e7e7">
  <title>2025-04-05 - inactive</title>
</circle>
<circle cx="488.25" cy="180.20" r="6" fill="#e7e7e7">
  <title>2025-04-06 - inactive</title>
</circle>
<circle cx="512.14" cy="134.38" r="6" fill="#e7e7e7">
  <title>2025-04-07 - inactive</title>
</circle>
<circle cx="553.67" cy="103.45" r="6" fill="#e7e7e7">
  <title>2025-04-08 - inactive</title>
</circle>
<circle cx="604.64" cy="93.64" r="6" fill="#e7e7e7">
  <title>2025-04-09 - inactive</title>
</circle>
<circle cx="654.91" cy="107.01" r="6" fill="#e7e7e7">
  <title>2025-04-10 - inactive</title>
</circle>
<circle cx="694.46" cy="140.99" r="6" fill="#e7e7e7">
  <title>2025-04-11 - inactive</title>
</circle>
<circle cx="715.33" cy="188.90" r="6" fill="#e7e7e7">
  <title>2025-04-12 - inactive</title>
</circle>
<circle cx="713.28" cy="241.23" r="6" fill="#e7e7e7">
  <title>2025-04-13 - inactive</title>
</circle>
<circle cx="688.62" cy="287.57" r="6" fill="#e7e7e7">
  <title>2025-04-14 - inactive</title>
</circle>
<circle cx="646.16" cy="318.63" r="6" fill="#e7e7e7">
  <title>2025-04-15 - inactive</title>
</circle>
<circle cx="594.30" cy="328.16" r="6" fill="#e7e7e7">
  <title>2025-04-16 - inactive</title>
</circle>
<circle cx="543.35" cy="314.14" r="6" fill="#e7e7e7">
  <title>2025-04-17 - inactive</title>
</circle>
<circle cx="503.48" cy="279.28" r="6" fill="#e7e7e7">
  <title>2025-04-18 - inactive</title>
</circle>
<circle cx="482.70" cy="230.44" r="6" fill="#e7e7e7">
  <title>2025-04-19 - inactive</title>
</circle>
<circle cx="485.23" cy="177.32" r="6" fill="#e7e7e7">
  <title>2025-04-20 - inactive</title>
</circle>
<circle cx="510.68" cy="130.48" r="6" fill="#e7e7e7">
  <title>2025-04-21 - inactive</title>
</circle>
<circle cx="554.06" cy="99.31" r="6" fill="#e7e7e7">
  <title>2025-04-22 - inactive</title>
</circle>
<circle cx="606.80" cy="90.09" r="6" fill="#e7e7e7">
  <title>2025-04-23 - inactive</title>
</circle>
<circle cx="658.40" cy="104.76" r="6" fill="#e7e7e7">
  <title>2025-04-24 - inactive</title>
</circle>
<circle cx="698.57" cy="140.49" r="6" fill="#e7e7e7">
  <title>2025-04-25 - inactive</title>
</circle>
<circle cx="719.25" cy="190.25" r="6" fill="#e7e7e7">
  <title>2025-04-26 - inactive</title>
</circle>
<circle cx="716.21" cy="244.15" r="6" fill="#e7e7e7">
  <title>2025-04-27 - inactive</title>
</circle>
<circle cx="689.97" cy="291.47" r="6" fill="#e7e7e7">
  <title>2025-04-28 - inactive</title>
</circle>
<circle cx="645.67" cy="322.73" r="6" fill="#e7e7e7">
  <title>2025-04-29 - inactive</title>
</circle>
<circle cx="592.08" cy="331.63" r="6" fill="#e7e7e7">
  <title>2025-04-30 - inactive</title>
</circle>
<circle cx="539.84" cy="316.29" r="6" fill="#e7e7e7">
  <title>2025-05-01 - inactive</title>
</circle>
<circle cx="499.39" cy="279.69" r="6" fill="#e7e7e7">
  <title>2025-05-02 - inactive</title>
</circle>
<circle cx="478.84" cy="229.02" r="6" fill="#e7e7e7">
  <title>2025-05-03 - inactive</title>
</circle>
<circle cx="482.39" cy="174.36" r="6" fill="#e7e7e7">
  <title>2025-05-04 - inactive</title>
</circle>
<circle cx="509.42" cy="126.58" r="6" fill="#e7e7e7">
  <title>2025-05-05 - inactive</title>
</circle>
<circle cx="554.63" cy="95.25" r="6" fill="#e7e7e7">
  <title>2025-05-06 - inactive</title>
</circle>
<circle cx="609.07" cy="86.69" r="6" fill="#e7e7e7">
  <title>2025-05-07 - inactive</title>
</circle>
<circle cx="661.93" cy="102.70" r="6" fill="#e7e7e7">
  <title>2025-05-08 - inactive</title>
</circle>
<circle cx="702.64" cy="140.18" r="6" fill="#e7e7e7">
  <title>2025-05-09 - inactive</title>
</circle>
<circle cx="723.04" cy="191.74" r="6" fill="#e7e7e7">
  <title>2025-05-10 - inactive</title>
</circle>
<circle cx="718.97" cy="247.15" r="6" fill="#e7e7e7">
  <title>2025-05-11 - inactive</title>
</circle>
<circle cx="691.15" cy="295.37" r="6" fill="#e7e7e7">
  <title>2025-05-12 - inactive</title>
</circle>
<circle cx="645.03" cy="326.75" r="6" fill="#e7e7e7">
  <title>2025-05-13 - inactive</title>
</circle>
<circle cx="589.75" cy="334.96" r="6" fill="#e7e7e7">
  <title>2025-05-14 - inactive</title>
</circle>
<circle cx="536.29" cy="318.27" r="6" fill="#e7e7e7">
  <title>2025-05-15 - inactive</title>
</circle>
<circle cx="495.34" cy="279.92" r="6" fill="#e7e7e7">
  <title>2025-05-16 - inactive</title>
</circle>
<circle cx="475.10" cy="227.46" r="6" fill="#e7e7e7">
  <title>2025-05-17 - inactive</title>
</circle>
<circle cx="479.71" cy="171.33" r="6" fill="#e7e7e7">
  <title>2025-05-18 - inactive</title>
</circle>
<circle cx="508.33" cy="122.68" r="6" fill="#e7e7e7">
  <title>2025-05-19 - inactive</title>
</circle>
<circle cx="555.35" cy="91.28" r="6" fill="#e7e7e7">
  <title>2025-05-20 - inactive</title>
</circle>
<circle cx="611.46" cy="83.43" r="6" fill="#e7e7e7">
  <title>2025-05-21 - inactive</title>
</circle>
<circle cx="665.49" cy="100.81" r="6" fill="#e7e7e7">
  <title>2025-05-22 - inactive</title>
</circle>
<circle cx="706.67" cy="140.03" r="6" fill="#e7e7e7">
  <title>2025-05-23 - inactive</title>
</circle>
<circle cx="726.72" cy="193.37" r="6" fill="#e7e7e7">
  <title>2025-05-24 - inactive</title>
</circle>
<circle cx="721.57" cy="250.22" r="6" fill="#e7e7e7">
  <title>2025-05-25 - inactive</title>
</circle>
<circle cx="692.15" cy="299.26" r="6" fill="#e7e7e7">
  <title>2025-05-26 - inactive</title>
</circle>
<circle cx="644.23" cy="330.68" r="6" fill="#e7e7e7">
  <title>2025-05-27 - inactive</title>
</circle>
<circle cx="587.31" cy="338.15" r="6" fill="#e7e7e7">
  <title>2025-05-28 - inactive</title>
</circle>
<circle cx="532.71" cy="320.07" r="6" fill="#e7e7e7">
  <title>2025-05-29 - inactive</title>
</circle>
<circle cx="491.33" cy="279.98" r="6" fill="#e7e7e7">
  <title>2025-05-30 - inactive</title>
</circle>
<circle cx="471.48" cy="225.77" r="6" fill="#e7e7e7">
  <title>2025-05-31 - inactive</title>
</circle>
<circle cx="477.19" cy="168.22" r="6" fill="#e7e7e7">
  <title>2025-06-01 - inactive</title>
</circle>
<circle cx="507.41" cy="118.80" r="6" fill="#e7e7e7">
  <title>2025-06-02 - inactive</title>
</circle>
<circle cx="556.22" cy="87.38" r="6" fill="#e7e7e7">
  <title>2025-06-03 - inactive</title>
</circle>
<circle cx="613.94" cy="80.31" r="6" fill="#e7e7e7">
  <title>2025-06-04 - inactive</title>
</circle>
<circle cx="669.09" cy="99.09" r="6" fill="#e7e7e7">
  <title>2025-06-05 - inactive</title>
</circle>
<circle cx="710.65" cy="140.05" r="6" fill="#e7e7e7">
  <title>2025-06-06 - inactive</title>
</circle>
<circle cx="730.30" cy="195.12" r="6" fill="#e7e7e7">
  <title>2025-06-07 - inactive</title>
</circle>
<circle cx="724.02" cy="253.35" r="6" fill="#e7e7e7">
  <title>2025-06-08 - inactive</title>
</circle>
<circle cx="692.98" cy="303.15" r="6" fill="#e7e7e7">
  <title>2025-06-09 - inactive</title>
</circle>
<circle cx="643.29" cy="334.54" r="6" fill="#e7e7e7">
  <title>2025-06-10 - inactive</title>
</circle>
<circle cx="584.78" cy="341.20" r="6" fill="#e7e7e7">
  <title>2025-06-11 - inactive</title>
</circle>
<circle cx="529.10" cy="321.72" r="6" fill="#e7e7e7">
  <title>2025-06-12 - inactive</title>
</circle>
<circle cx="487.37" cy="279.88" r="6" fill="#e7e7e7">
  <title>2025-06-13 - inactive</title>
</circle>
<circle cx="467.96" cy="223.96" r="6" fill="#e7e7e7">
  <title>2025-06-14 - inactive</title>
</circle>
<circle cx="474.81" cy="165.05" r="6" fill="#e7e7e7">
  <title>2025-06-15 - inactive</title>
</circle>
<circle cx="506.66" cy="114.91" r="6" fill="#e7e7e7">
  <title>2025-06-16 - inactive</title>
</circle>
<circle cx="557.24" cy="83.56" r="6" fill="#e7e7e7">
  <title>2025-06-17 - inactive</title>
</circle>
<circle cx="616.52" cy="77.32" r="6" fill="#e7e7e7">
  <title>2025-06-18 - inactive</title>
</circle>
<circle cx="672.71" cy="97.52" r="6" fill="#e7e7e7">
  <title>2025-06-19 - inactive</title>
</circle>
<circle cx="714.60" cy="140.23" r="6" fill="#e7e7e7">
  <title>2025-06-20 - inactive</title>
</circle>
<circle cx="733.76" cy="197.00" r="6" fill="#e7e7e7">
  <title>2025-06-21 - inactive</title>
</circle>
<circle cx="726.32" cy="256.55" r="6" fill="#e7e7e7">
  <title>2025-06-22 - inactive</title>
</circle>
<circle cx="693.65" cy="307.03" r="6" fill="#e7e7e7">
  <title>2025-06-23 - inactive</title>
</circle>
<circle cx="642.20" cy="338.32" r="6" fill="#e7e7e7">
  <title>2025-06-24 - inactive</title>
</circle>
<circle cx="582.15" cy="344.13" r="6" fill="#e7e7e7">
  <title>2025-06-25 - inactive</title>
</circle>
<circle cx="525.46" cy="323.20" r="6" fill="#e7e7e7">
  <title>2025-06-26 - inactive</title>
</circle>
<circle cx="483.45" cy="279.62" r="6" fill="#e7e7e7">
  <title>2025-06-27 - inactive</title>
</circle>
<circle cx="464.54" cy="222.02" r="6" fill="#e7e7e7">
  <title>2025-06-28 - inactive</title>
</circle>
<circle cx="472.59" cy="161.82" r="6" fill="#e7e7e7">
  <title>2025-06-29 - inactive</title>
</circle>
<circle cx="506.07" cy="111.03" r="6" fill="#e7e7e7">
  <title>2025-06-30 - inactive</title>
</circle>
<circle cx="558.40" cy="79.82" r="6" fill="#e7e7e7">
  <title>2025-07-01 - inactive</title>
</circle>
<circle cx="619.20" cy="74.46" r="6" fill="#e7e7e7">
  <title>2025-07-02 - inactive</title>
</circle>
<circle cx="676.37" cy="96.12" r="6" fill="#e7e7e7">
  <title>2025-07-03 - inactive</title>
</circle>
<circle cx="718.49" cy="140.56" r="6" fill="#e7e7e7">
  <title>2025-07-04 - inactive</title>
</circle>
<circle cx="737.13" cy="199.00" r="6" fill="#e7e7e7">
  <title>2025-07-05 - inactive</title>
</circle>
<circle cx="728.47" cy="259.82" r="6" fill="#e7e7e7">
  <title>2025-07-06 - inactive</title>
</circle>
<circle cx="694.16" cy="310.90" r="6" fill="#e7e7e7">
  <title>2025-07-07 - inactive</title>
</circle>
<circle cx="640.97" cy="342.03" r="6" fill="#e7e7e7">
  <title>2025-07-08 - inactive</title>
</circle>
<circle cx="579.43" cy="346.92" r="6" fill="#e7e7e7">
  <title>2025-07-09 - inactive</title>
</circle>
<circle cx="521.79" cy="324.53" r="6" fill="#e7e7e7">
  <title>2025-07-10 - inactive</title>
</circle>
<circle cx="479.57" cy="279.22" r="6" fill="#e7e7e7">
  <title>2025-07-11 - inactive</title>
</circle>
<circle cx="461.23" cy="219.96" r="6" fill="#e7e7e7">
  <title>2025-07-12 - inactive</title>
</circle>
<circle cx="470.51" cy="158.53" r="6" fill="#e7e7e7">
  <title>2025-07-13 - inactive</title>
</circle>
<circle cx="505.64" cy="107.17" r="6" fill="#e7e7e7">
  <title>2025-07-14 - inactive</title>
</circle>
<circle cx="559.70" cy="76.15" r="6" fill="#e7e7e7">
  <title>2025-07-15 - inactive</title>
</circle>
<circle cx="621.97" cy="71.72" r="6" fill="#e7e7e7">
  <title>2025-07-16 - inactive</title>
</circle>
<circle cx="680.05" cy="94.86" r="6" fill="#e7e7e7">
  <title>2025-07-17 - inactive</title>
</circle>
<circle cx="722.35" cy="141.04" r="6" fill="#e7e7e7">
  <title>2025-07-18 - inactive</title>
</circle>
<circle cx="740.39" cy="201.11" r="6" fill="#e7e7e7">
  <title>2025-07-19 - inactive</title>
</circle>
<circle cx="730.48" cy="263.14" r="6" fill="#e7e7e7">
  <title>2025-07-20 - inactive</title>
</circle>
<circle cx="694.53" cy="314.77" r="6" fill="#e7e7e7">
  <title>2025-07-21 - inactive</title>
</circle>
<circle cx="639.61" cy="345.66" r="6" fill="#e7e7e7">
  <title>2025-07-22 - inactive</title>
</circle>
<circle cx="576.62" cy="349.60" r="6" fill="#e7e7e7">
  <title>2025-07-23 - inactive</title>
</circle>
<circle cx="518.10" cy="325.71" r="6" fill="#e7e7e7">
  <title>2025-07-24 - inactive</title>
</circle>
<circle cx="475.74" cy="278.67" r="6" fill="#e7e7e7">
  <title>2025-07-25 - inactive</title>
</circle>
<circle cx="458.02" cy="217.80" r="6" fill="#e7e7e7">
  <title>2025-07-26 - inactive</title>
</circle>
<circle cx="468.56" cy="155.18" r="6" fill="#e7e7e7">
  <title>2025-07-27 - inactive</title>
</circle>
<circle cx="505.35" cy="103.31" r="6" fill="#e7e7e7">
  <title>2025-07-28 - inactive</title>
</circle>
<circle cx="561.12" cy="72.55" r="6" fill="#e7e7e7">
  <title>2025-07-29 - inactive</title>
</circle>
<circle cx="624.82" cy="69.11" r="6" fill="#e7e7e7">
  <title>2025-07-30 - inactive</title>
</circle>
<circle cx="683.75" cy="93.76" r="6" fill="#e7e7e7">
  <title>2025-07-31 - inactive</title>
</circle>
<circle cx="726.17" cy="141.66" r="6" fill="#e7e7e7">
  <title>2025-08-01 - inactive</title>
</circle>
<circle cx="743.55" cy="203.33" r="6" fill="#e7e7e7">
  <title>2025-08-02 - inactive</title>
</circle>
<circle cx="732.36" cy="266.51" r="6" fill="#e7e7e7">
  <title>2025-08-03 - inactive</title>
</circle>
<circle cx="694.74" cy="318.62" r="6" fill="#e7e7e7">
  <title>2025-08-04 - inactive</title>
</circle>
<circle cx="638.12" cy="349.22" r="6" fill="#e7e7e7">
  <title>2025-08-05 - inactive</title>
</circle>
<circle cx="573.73" cy="352.15" r="6" fill="#e7e7e7">
  <title>2025-08-06 - inactive</title>
</circle>
<circle cx="514.39" cy="326.74" r="6" fill="#e7e7e7">
  <title>2025-08-07 - inactive</title>
</circle>
<circle cx="471.94" cy="277.98" r="6" fill="#e7e7e7">
  <title>2025-08-08 - inactive</title>
</circle>
<circle cx="454.91" cy="215.52" r="6" fill="#e7e7e7">
  <title>2025-08-09 - inactive</title>
</circle>
<circle cx="466.76" cy="151.78" r="6" fill="#e7e7e7">
  <title>2025-08-10 - inactive</title>
</circle>
<circle cx="505.21" cy="99.46" r="6" fill="#e7e7e7">
  <title>2025-08-11 - inactive</title>
</circle>
<circle cx="562.67" cy="69.03" r="6" fill="#e7e7e7">
  <title>2025-08-12 - inactive</title>
</circle>
<circle cx="627.75" cy="66.62" r="6" fill="#e7e7e7">
  <title>2025-08-13 - inactive</title>
</circle>
<circle cx="687.48" cy="92.79" r="6" fill="#e7e7e7">
  <title>2025-08-14 - inactive</title>
</circle>
<circle cx="729.94" cy="142.41" r="6" fill="#e7e7e7">
  <title>2025-08-15 - inactive</title>
</circle>
<circle cx="746.61" cy="205.65" r="6" fill="#e7e7e7">
  <title>2025-08-16 - inactive</title>
</circle>
<circle cx="734.10" cy="269.94" r="6" fill="#e7e7e7">
  <title>2025-08-17 - inactive</title>
</circle>
<circle cx="694.81" cy="322.46" r="6" fill="#e7e7e7">
  <title>2025-08-18 - inactive</title>
</circle>
<circle cx="636.50" cy="352.71" r="6" fill="#e7e7e7">
  <title>2025-08-19 - inactive</title>
</circle>
<circle cx="570.76" cy="354.59" r="6" fill="#e7e7e7">
  <title>2025-08-20 - inactive</title>
</circle>
<circle cx="510.65" cy="327.64" r="6" fill="#e7e7e7">
  <title>2025-08-21 - inactive</title>
</circle>
<circle cx="468.19" cy="277.16" r="6" fill="#e7e7e7">
  <title>2025-08-22 - inactive</title>
</circle>
<circle cx="451.89" cy="213.14" r="6" fill="#e7e7e7">
  <title>2025-08-23 - inactive</title>
</circle>
<circle cx="465.08" cy="148.32" r="6" fill="#e7e7e7">
  <title>2025-08-24 - inactive</title>
</circle>
<circle cx="505.21" cy="95.62" r="6" fill="#e7e7e7">
  <title>2025-08-25 - inactive</title>
</circle>
<circle cx="564.35" cy="65.57" r="6" fill="#e7e7e7">
  <title>2025-08-26 - inactive</title>
</circle>
<circle cx="630.76" cy="64.24" r="6" fill="#e7e7e7">
  <title>2025-08-27 - inactive</title>
</circle>
<circle cx="691.22" cy="91.97" r="6" fill="#e7e7e7">
  <title>2025-08-28 - inactive</title>
</circle>
<circle cx="733.67" cy="143.31" r="6" fill="#e7e7e7">
  <title>2025-08-29 - inactive</title>
</circle>
<circle cx="749.58" cy="208.08" r="6" fill="#e7e7e7">
  <title>2025-08-30 - inactive</title>
</circle>
<circle cx="735.71" cy="273.42" r="9" fill="rgb(30,255,60)">
  <title>2025-08-31 - active</title>
</circle>
<text x="600" y="392" font-size="18" text-anchor="middle" fill="#333">Active days tracked: 1</text>
</svg>